<svg width="373" height="143" viewBox="0 0 373 143" fill="none" xmlns="http://www.w3.org/2000/svg">
<g clip-path="url(#clip0_61_3002)">
<path d="M176.059 80.4138V65.9373H148.866C144.867 65.9373 141.588 69.1365 141.588 73.2155V119.444C141.588 123.443 144.867 126.562 148.866 126.562H176.059V112.166H156.064V80.4138H176.059ZM186.045 65.7773C182.046 65.7773 178.766 69.0565 178.766 73.0556V126.562H193.243V114.805H201.401V100.249H193.243V80.3338H204.12V126.562H218.677V65.7773H186.045ZM261.242 126.562L251.325 109.367H254.044C258.043 109.367 261.242 106.087 261.242 102.088V73.1355C261.242 69.0565 258.043 65.8573 254.044 65.8573H221.412V126.562H235.889V80.3338H246.766V94.8902H238.608V116.405L244.527 126.562H261.242ZM263.98 65.8573V80.3338H284.775L263.98 112.086V126.562H302.131V112.086H281.336L302.131 80.3338V73.1355C302.131 69.0565 298.851 65.8573 294.852 65.8573H263.98ZM319.306 65.9373H304.829V126.562H319.306V65.9373ZM360.083 73.1355C360.083 69.0565 356.884 65.8573 352.885 65.8573H322.013V80.3338H345.607V100.329H336.569V83.0531H322.013V126.562H336.569V114.805H352.885C356.884 114.805 360.083 111.526 360.083 107.527V73.1355Z" fill="white"/>
<path d="M126.281 87.3412C129.898 90.5194 131.021 94.4811 130.747 98.9822C130.665 100.314 130.742 101.654 130.742 102.99C130.742 104.913 130.661 106.84 130.756 108.759C130.856 110.765 130.014 112.241 128.429 113.308C127.769 113.753 127.59 114.238 127.599 114.985C127.634 118.212 127.615 121.439 127.617 124.666C127.617 126.963 126.36 128.225 124.053 128.23C121.184 128.235 118.315 128.235 115.449 128.23C113.207 128.225 111.95 126.951 111.95 124.703C111.95 122.459 111.95 120.218 111.95 117.956C95.2473 119.188 78.6263 119.216 61.8868 117.933C61.8868 119.667 61.8868 121.42 61.8868 123.171C61.8868 123.854 61.91 124.54 61.8775 125.224C61.7961 126.907 60.5476 128.188 58.855 128.209C55.6606 128.249 52.4661 128.251 49.2716 128.209C47.507 128.186 46.2608 126.851 46.2469 125.031C46.2213 121.641 46.226 118.251 46.2492 114.862C46.2539 114.224 46.112 113.801 45.5331 113.418C43.8731 112.323 43.0315 110.809 43.078 108.731C43.164 104.918 43.1291 101.105 43.1036 97.2896C43.078 93.5721 44.3544 90.4148 47.0211 87.8202C47.1559 87.6877 47.2792 87.5435 47.4768 87.3343C47.1931 87.1948 46.9723 87.0832 46.7514 86.9762C44.0545 85.6743 42.6316 82.8494 43.25 80.027C43.9034 77.0464 46.3515 75.0563 49.4065 75.026C50.5155 75.0144 51.6245 74.9702 52.7311 75.0284C53.3868 75.0632 53.6332 74.7935 53.8146 74.2146C54.3842 72.4151 54.998 70.6296 55.6117 68.844C57.6647 62.8689 62.6377 59.3583 68.9801 59.3652C81.007 59.3769 93.0363 59.3722 105.063 59.3769C111.145 59.3769 116.023 62.7597 118.104 68.4651C118.806 70.3901 119.436 72.3454 120.047 74.303C120.229 74.8819 120.512 75.04 121.089 75.04C122.616 75.0377 124.172 74.9423 125.667 75.1818C128.426 75.6259 130.389 77.8369 130.714 80.5594C131.028 83.1959 129.596 85.751 127.134 86.9483C126.906 87.0599 126.676 87.1645 126.285 87.3459L126.281 87.3412ZM53.7448 84.3397H120.003C119.989 84.1747 119.999 84.0724 119.968 83.984C118.313 79.0133 116.746 74.0124 114.97 69.0858C113.503 65.0172 109.678 62.5155 105.347 62.5132C93.1944 62.5039 81.0442 62.5039 68.8918 62.5062C63.8769 62.5062 60.1593 65.1683 58.5574 69.9065C57.5252 72.9592 56.5092 76.0165 55.4908 79.0737C54.9166 80.7989 54.347 82.524 53.7448 84.3421V84.3397ZM55.6257 93.8022C52.2266 93.7674 49.4018 96.5712 49.3786 100.001C49.3553 103.481 52.1243 106.278 55.6257 106.306C59.0131 106.334 61.8542 103.518 61.8844 100.105C61.9147 96.6526 59.1201 93.8371 55.6257 93.8022ZM118.22 93.8022C114.821 93.765 111.992 96.5666 111.968 99.9959C111.943 103.476 114.712 106.276 118.211 106.306C121.598 106.336 124.442 103.523 124.474 100.107C124.507 96.6549 121.714 93.8371 118.22 93.7999V93.8022ZM86.8217 100.054V100.047C92.4574 100.047 98.0953 100.049 103.731 100.047C104.956 100.047 105.677 99.4588 105.686 98.487C105.696 97.5221 104.973 96.9293 103.736 96.9293C92.5271 96.9293 81.3186 96.9293 70.1101 96.9386C68.8709 96.9386 68.1687 97.5175 68.1571 98.4986C68.1455 99.4728 68.8639 100.054 70.1054 100.054C75.676 100.056 81.2488 100.054 86.8194 100.054H86.8217ZM86.931 103.193C86.6706 103.193 86.4102 103.193 86.1498 103.193C81.8161 103.19 77.4824 103.183 73.1488 103.188C71.984 103.188 71.2935 103.774 71.2795 104.727C71.2656 105.706 71.984 106.31 73.2069 106.31C82.3625 106.31 91.5181 106.31 100.674 106.301C101.832 106.301 102.538 105.704 102.552 104.767C102.566 103.804 101.832 103.195 100.616 103.193C96.054 103.188 91.4925 103.193 86.931 103.193Z" fill="#FC9400"/>
<path d="M116.21 53.3662C107.717 44.4407 99.0866 35.6432 90.8028 26.5271C87.7106 23.1234 85.5322 23.3745 82.519 26.3969C70.5875 38.3564 58.4745 50.1345 46.536 62.087C38.6126 70.0197 30.9077 78.1709 23.0076 86.1246C21.8963 87.2429 20.2479 88.4425 18.8018 88.5053C12.7221 88.7703 6.62375 88.6169 0.532411 88.6169C0.355716 88.1821 0.176695 87.7474 0 87.3126C3.04102 84.0275 5.96579 80.6214 9.14631 77.4781C18.1206 68.6155 27.1855 59.8458 36.2528 51.0761C37.4501 49.9183 38.8474 48.9674 40.1656 47.9374C43.5019 45.3289 45.5897 42.16 45.3131 37.6752C45.1131 34.4458 45.2015 31.1979 45.2177 27.9569C45.248 21.1983 45.7827 20.7891 52.8784 21.9214C53.0086 22.1864 53.2016 22.4422 53.2481 22.7212C53.6549 25.253 54.0385 27.7918 54.4268 30.326C56.9912 28.6033 59.8834 27.2176 62.0596 25.0972C70.3991 16.9716 78.5062 8.60878 86.7179 0.3506C86.9016 0.16693 87.2875 0.185529 88.0338 -0.00976562C96.3431 8.31119 104.827 16.7949 113.294 25.2902C117.537 29.5472 121.659 33.932 126.016 38.0681C128.448 40.3791 128.597 42.1855 126.191 44.636C123.51 47.3655 121.194 50.4554 118.721 53.3894C117.884 53.3778 117.049 53.3662 116.212 53.3546L116.21 53.3662Z" fill="#FC9400"/>
<path d="M85.7667 44.3953H80.1055V38.6016H85.7667V44.3953Z" fill="#FC9400"/>
<path d="M94.0523 38.5547V44.3415H88.498V38.5547H94.0523Z" fill="#FC9400"/>
<path d="M85.7559 52.6525H80.1133V46.9727H85.7559V52.6525Z" fill="#FC9400"/>
<path d="M88.4082 46.9023H93.9788V52.531H88.4082V46.9023Z" fill="#FC9400"/>
</g>
<defs>
<clipPath id="clip0_61_3002">
<rect width="372.355" height="143" fill="white"/>
</clipPath>
</defs>
</svg>