<svg width="168" height="40" viewBox="0 0 168 40" fill="none" xmlns="http://www.w3.org/2000/svg">
<rect width="168" height="40" rx="20" fill="#B8B8B8"/>
<path d="M70.4336 11.2188H68.8906V28.6211H70.4336V11.2188ZM57.1328 24.4219H65.3359V12.7031H63.832V17.293H58.6562V12.7031H57.1328V24.4219ZM58.6562 23.1328V18.5234H63.832V23.1328H58.6562ZM88.2873 21.7266H72.467V23.0156H79.6154V28.6211H81.1194V23.0156H88.2873V21.7266ZM73.4631 19.1484L74.0295 20.3789C76.7151 19.9688 79.2834 18.6406 80.3869 16.7363C81.4904 18.6211 84.0197 19.9688 86.7053 20.3789L87.2717 19.1484C84.1662 18.7285 81.1389 16.8242 81.1389 14.6562V14.6367H86.7639V13.3867H81.1194V11.2188H79.6154V13.3867H74.01V14.6367H79.6154V14.6562C79.6057 16.834 76.5588 18.7285 73.4631 19.1484ZM94.7348 15.3789V14.8125H98.6606V13.5625H94.7739V11.3359H93.2309V13.5625H89.3051V14.8125H93.2309V15.3789C93.2211 17.8301 91.4438 19.9883 88.8754 20.8477L89.6371 22.0391C91.6782 21.3262 93.2602 19.8418 94.0121 17.9277C94.7934 19.7148 96.3852 21.0918 98.3871 21.7461L99.1489 20.5156C96.5707 19.7051 94.7446 17.6934 94.7348 15.3789ZM92.059 28.2109H103.7V26.9219H93.602V23.0352H92.059V28.2109ZM98.0551 17.8594H101.668V24.207H103.211V11.2383H101.668V16.5898H98.0551V17.8594ZM113.839 14.2266H110.264V11.7461H108.741V14.2266H105.128V15.4766H113.839V14.2266ZM105.753 20.5938C105.753 22.9277 107.325 24.5684 109.483 24.5781C111.671 24.5684 113.233 22.9277 113.253 20.5938C113.233 18.2891 111.671 16.6582 109.483 16.6484C107.325 16.6582 105.753 18.2891 105.753 20.5938ZM107.12 20.5938C107.12 19.0703 108.106 17.957 109.483 17.9375C110.87 17.957 111.885 19.0703 111.885 20.5938C111.885 22.1367 110.87 23.2402 109.483 23.2305C108.106 23.2402 107.12 22.1367 107.12 20.5938ZM114.737 27.7227H116.182V19.8125H118.487V28.582H119.952V11.2188H118.487V18.543H116.182V11.6484H114.737V27.7227ZM137.415 25.0664H133.47V20.3398C134.905 19.5684 135.774 18.3379 135.774 16.7852C135.774 14.0996 133.138 12.332 129.427 12.3125C125.716 12.332 123.079 14.0996 123.079 16.7852C123.079 18.3672 123.977 19.6172 125.462 20.3887V25.0664H121.516V26.3555H137.415V25.0664ZM124.563 16.7852C124.554 14.8418 126.575 13.5625 129.427 13.582C132.249 13.5625 134.29 14.8418 134.29 16.7852C134.29 18.7285 132.249 20.0273 129.427 20.0273C126.575 20.0273 124.554 18.7285 124.563 16.7852ZM126.966 25.0664V20.9453C127.708 21.1406 128.538 21.2383 129.427 21.2383C130.335 21.2383 131.175 21.1309 131.927 20.9355V25.0664H126.966ZM140.679 12.8594H138.765L138.901 23.0156H140.542L140.679 12.8594ZM138.472 25.8477C138.452 26.541 139.038 27.1074 139.722 27.1172C140.415 27.1074 140.982 26.541 140.972 25.8477C140.982 25.1641 140.415 24.5977 139.722 24.5977C139.038 24.5977 138.452 25.1641 138.472 25.8477Z" fill="#212121"/>
<path d="M30.7931 20.8651V9.2824C30.7931 8.89841 30.6405 8.53014 30.3689 8.25862C30.0973 7.9871 29.7289 7.83456 29.3448 7.83456H26.4483C26.0642 7.83456 25.6958 7.9871 25.4242 8.25862C25.1526 8.53014 25 8.89841 25 9.2824V19.4173C25 19.8013 25.1526 20.1695 25.4242 20.4411C25.6958 20.7126 26.0642 20.8651 26.4483 20.8651H30.7931ZM30.7931 20.8651C32.3295 20.8651 33.803 21.4753 34.8894 22.5614C35.9759 23.6475 36.5862 25.1205 36.5862 26.6565V28.1043C36.5862 28.8723 36.8914 29.6088 37.4346 30.1519C37.9778 30.6949 38.7145 31 39.4828 31C40.251 31 40.9877 30.6949 41.5309 30.1519C42.0741 29.6088 42.3793 28.8723 42.3793 28.1043V20.8651H46.7241C47.4924 20.8651 48.2291 20.56 48.7723 20.017C49.3155 19.4739 49.6207 18.7374 49.6207 17.9694L48.1724 10.7302C47.9641 9.84203 47.569 9.07935 47.0466 8.55708C46.5242 8.03482 45.9027 7.78125 45.2759 7.83456H35.1379C33.9856 7.83456 32.8805 8.29218 32.0657 9.10675C31.2509 9.92132 30.7931 11.0261 30.7931 12.1781" stroke="#212121" stroke-width="1.44828" stroke-linecap="round" stroke-linejoin="round"/>
</svg>
