<svg width="116" height="28" viewBox="0 0 116 28" fill="none" xmlns="http://www.w3.org/2000/svg">
<rect width="116" height="28" rx="14" fill="#F2CA04"/>
<path d="M45.0156 7.375H43.7812V21.2969H45.0156V7.375ZM34.375 17.9375H40.9375V8.5625H39.7344V12.2344H35.5938V8.5625H34.375V17.9375ZM35.5938 16.9062V13.2188H39.7344V16.9062H35.5938ZM59.401 15.7812H46.7448V16.8125H52.4635V21.2969H53.6667V16.8125H59.401V15.7812ZM47.5417 13.7188L47.9948 14.7031C50.1432 14.375 52.1979 13.3125 53.0807 11.7891C53.9635 13.2969 55.987 14.375 58.1354 14.7031L58.5885 13.7188C56.1042 13.3828 53.6823 11.8594 53.6823 10.125V10.1094H58.1823V9.10938H53.6667V7.375H52.4635V9.10938H47.9792V10.1094H52.4635V10.125C52.4557 11.8672 50.0182 13.3828 47.5417 13.7188ZM64.6615 10.7031V10.25H67.8021V9.25H64.6927V7.46875H63.4583V9.25H60.3177V10.25H63.4583V10.7031C63.4505 12.6641 62.0287 14.3906 59.974 15.0781L60.5833 16.0312C62.2162 15.4609 63.4818 14.2734 64.0833 12.7422C64.7083 14.1719 65.9818 15.2734 67.5833 15.7969L68.1927 14.8125C66.1302 14.1641 64.6693 12.5547 64.6615 10.7031ZM62.5208 20.9688H71.8333V19.9375H63.7552V16.8281H62.5208V20.9688ZM67.3177 12.6875H70.2083V17.7656H71.4427V7.39062H70.2083V11.6719H67.3177V12.6875ZM80.0469 9.78125H77.1875V7.79688H75.9688V9.78125H73.0781V10.7812H80.0469V9.78125ZM73.5781 14.875C73.5781 16.7422 74.836 18.0547 76.5625 18.0625C78.3125 18.0547 79.5625 16.7422 79.5781 14.875C79.5625 13.0312 78.3125 11.7266 76.5625 11.7188C74.836 11.7266 73.5781 13.0312 73.5781 14.875ZM74.6719 14.875C74.6719 13.6562 75.461 12.7656 76.5625 12.75C77.6719 12.7656 78.4844 13.6562 78.4844 14.875C78.4844 16.1094 77.6719 16.9922 76.5625 16.9844C75.461 16.9922 74.6719 16.1094 74.6719 14.875ZM80.7656 20.5781H81.9219V14.25H83.7656V21.2656H84.9375V7.375H83.7656V13.2344H81.9219V7.71875H80.7656V20.5781ZM99.0104 18.4531H95.8542V14.6719C97.0026 14.0547 97.6979 13.0703 97.6979 11.8281C97.6979 9.67969 95.5886 8.26562 92.6198 8.25C89.6511 8.26562 87.5417 9.67969 87.5417 11.8281C87.5417 13.0938 88.2604 14.0938 89.4479 14.7109V18.4531H86.2917V19.4844H99.0104V18.4531ZM88.7292 11.8281C88.7214 10.2734 90.3386 9.25 92.6198 9.26562C94.8776 9.25 96.5104 10.2734 96.5104 11.8281C96.5104 13.3828 94.8776 14.4219 92.6198 14.4219C90.3386 14.4219 88.7214 13.3828 88.7292 11.8281ZM90.6511 18.4531V15.1562C91.2448 15.3125 91.9089 15.3906 92.6198 15.3906C93.3464 15.3906 94.0183 15.3047 94.6198 15.1484V18.4531H90.6511ZM101.724 8.6875H100.193L100.302 16.8125H101.615L101.724 8.6875ZM99.9584 19.0781C99.9427 19.6328 100.411 20.0859 100.958 20.0938C101.513 20.0859 101.966 19.6328 101.958 19.0781C101.966 18.5312 101.513 18.0781 100.958 18.0781C100.411 18.0781 99.9427 18.5312 99.9584 19.0781Z" fill="#212121"/>
<path d="M16 17.0021V9.00451C16 8.73938 15.8946 8.4851 15.7071 8.29762C15.5196 8.11014 15.2652 8.00481 15 8.00481H13C12.7348 8.00481 12.4804 8.11014 12.2929 8.29762C12.1054 8.4851 12 8.73938 12 9.00451V16.0024C12 16.2675 12.1054 16.5218 12.2929 16.7093C12.4804 16.8968 12.7348 17.0021 13 17.0021H16ZM16 17.0021C17.0609 17.0021 18.0783 17.4234 18.8284 18.1733C19.5786 18.9232 20 19.9404 20 21.0009V22.0006C20 22.5309 20.2107 23.0394 20.5858 23.4144C20.9609 23.7893 21.4696 24 22 24C22.5304 24 23.0391 23.7893 23.4142 23.4144C23.7893 23.0394 24 22.5309 24 22.0006V17.0021H27C27.5304 17.0021 28.0391 16.7915 28.4142 16.4165C28.7893 16.0415 29 15.533 29 15.0027L28 10.0042C27.8562 9.39092 27.5834 8.86431 27.2227 8.5037C26.8619 8.14309 26.4328 7.968 26 8.00481H19C18.2044 8.00481 17.4413 8.32079 16.8787 8.88323C16.3161 9.44567 16 10.2085 16 11.0039" stroke="#212121" stroke-linecap="round" stroke-linejoin="round"/>
</svg>
