<svg width="102" height="28" viewBox="0 0 102 28" fill="none" xmlns="http://www.w3.org/2000/svg">
<rect width="102" height="28" rx="14" fill="#F2CA04"/>
<path d="M46.2188 15.7812H33.5625V16.8125H39.2812V21.2969H40.4844V16.8125H46.2188V15.7812ZM34.3594 13.7188L34.8125 14.7031C36.9609 14.375 39.0156 13.3125 39.8984 11.7891C40.7812 13.2969 42.8047 14.375 44.9531 14.7031L45.4062 13.7188C42.9219 13.3828 40.5 11.8594 40.5 10.125V10.1094H45V9.10938H40.4844V7.375H39.2812V9.10938H34.7969V10.1094H39.2812V10.125C39.2734 11.8672 36.8359 13.3828 34.3594 13.7188ZM51.4792 10.7031V10.25H54.6198V9.25H51.5104V7.46875H50.276V9.25H47.1354V10.25H50.276V10.7031C50.2682 12.6641 48.8464 14.3906 46.7917 15.0781L47.401 16.0312C49.0339 15.4609 50.2995 14.2734 50.901 12.7422C51.526 14.1719 52.7995 15.2734 54.401 15.7969L55.0104 14.8125C52.9479 14.1641 51.487 12.5547 51.4792 10.7031ZM49.3385 20.9688H58.651V19.9375H50.5729V16.8281H49.3385V20.9688ZM54.1354 12.6875H57.026V17.7656H58.2604V7.39062H57.026V11.6719H54.1354V12.6875ZM66.8646 9.78125H64.0052V7.79688H62.7865V9.78125H59.8958V10.7812H66.8646V9.78125ZM60.3958 14.875C60.3958 16.7422 61.6537 18.0547 63.3802 18.0625C65.1302 18.0547 66.3802 16.7422 66.3958 14.875C66.3802 13.0312 65.1302 11.7266 63.3802 11.7188C61.6537 11.7266 60.3958 13.0312 60.3958 14.875ZM61.4896 14.875C61.4896 13.6562 62.2787 12.7656 63.3802 12.75C64.4896 12.7656 65.3021 13.6562 65.3021 14.875C65.3021 16.1094 64.4896 16.9922 63.3802 16.9844C62.2787 16.9922 61.4896 16.1094 61.4896 14.875ZM67.5833 20.5781H68.7396V14.25H70.5833V21.2656H71.7552V7.375H70.5833V13.2344H68.7396V7.71875H67.5833V20.5781ZM85.8281 18.4531H82.6719V14.6719C83.8203 14.0547 84.5156 13.0703 84.5156 11.8281C84.5156 9.67969 82.4063 8.26562 79.4375 8.25C76.4688 8.26562 74.3594 9.67969 74.3594 11.8281C74.3594 13.0938 75.0781 14.0938 76.2656 14.7109V18.4531H73.1094V19.4844H85.8281V18.4531ZM75.5469 11.8281C75.5391 10.2734 77.1563 9.25 79.4375 9.26562C81.6953 9.25 83.3281 10.2734 83.3281 11.8281C83.3281 13.3828 81.6953 14.4219 79.4375 14.4219C77.1563 14.4219 75.5391 13.3828 75.5469 11.8281ZM77.4688 18.4531V15.1562C78.0625 15.3125 78.7266 15.3906 79.4375 15.3906C80.1641 15.3906 80.836 15.3047 81.4375 15.1484V18.4531H77.4688ZM88.5417 8.6875H87.0104L87.1198 16.8125H88.4323L88.5417 8.6875ZM86.7761 19.0781C86.7604 19.6328 87.2292 20.0859 87.7761 20.0938C88.3308 20.0859 88.7839 19.6328 88.7761 19.0781C88.7839 18.5312 88.3308 18.0781 87.7761 18.0781C87.2292 18.0781 86.7604 18.5312 86.7761 19.0781Z" fill="#212121"/>
<path d="M16 12.9979V20.9955C16 21.2606 15.8946 21.5149 15.7071 21.7024C15.5196 21.8899 15.2652 21.9952 15 21.9952H13C12.7348 21.9952 12.4804 21.8899 12.2929 21.7024C12.1054 21.5149 12 21.2606 12 20.9955V13.9976C12 13.7325 12.1054 13.4782 12.2929 13.2907C12.4804 13.1032 12.7348 12.9979 13 12.9979H16ZM16 12.9979C17.0609 12.9979 18.0783 12.5766 18.8284 11.8267C19.5786 11.0768 20 10.0596 20 8.9991V7.9994C20 7.46912 20.2107 6.96057 20.5858 6.58561C20.9609 6.21065 21.4696 6 22 6C22.5304 6 23.0391 6.21065 23.4142 6.58561C23.7893 6.96057 24 7.46912 24 7.9994V12.9979H27C27.5304 12.9979 28.0391 13.2085 28.4142 13.5835C28.7893 13.9585 29 14.467 29 14.9973L28 19.9958C27.8562 20.6091 27.5834 21.1357 27.2227 21.4963C26.8619 21.8569 26.4328 22.032 26 21.9952H19C18.2044 21.9952 17.4413 21.6792 16.8787 21.1168C16.3161 20.5543 16 19.7915 16 18.9961" stroke="#212121" stroke-linecap="round" stroke-linejoin="round"/>
</svg>
