<svg width="168" height="40" viewBox="0 0 168 40" fill="none" xmlns="http://www.w3.org/2000/svg">
<rect width="168" height="40" rx="20" fill="#F2CA04"/>
<path d="M82.0234 21.7266H66.2031V23.0156H73.3516V28.6211H74.8555V23.0156H82.0234V21.7266ZM67.1992 19.1484L67.7656 20.3789C70.4512 19.9688 73.0195 18.6406 74.123 16.7363C75.2266 18.6211 77.7559 19.9688 80.4414 20.3789L81.0078 19.1484C77.9023 18.7285 74.875 16.8242 74.875 14.6562V14.6367H80.5V13.3867H74.8555V11.2188H73.3516V13.3867H67.7461V14.6367H73.3516V14.6562C73.3418 16.834 70.2949 18.7285 67.1992 19.1484ZM88.3453 15.3789V14.8125H92.271V13.5625H88.3843V11.3359H86.8413V13.5625H82.9156V14.8125H86.8413V15.3789C86.8316 17.8301 85.0542 19.9883 82.4859 20.8477L83.2476 22.0391C85.2886 21.3262 86.8706 19.8418 87.6226 17.9277C88.4038 19.7148 89.9956 21.0918 91.9976 21.7461L92.7593 20.5156C90.1812 19.7051 88.355 17.6934 88.3453 15.3789ZM85.6695 28.2109H97.3101V26.9219H87.2124V23.0352H85.6695V28.2109ZM91.6656 17.8594H95.2788V24.207H96.8218V11.2383H95.2788V16.5898H91.6656V17.8594ZM107.323 14.2266H103.749V11.7461H102.226V14.2266H98.6124V15.4766H107.323V14.2266ZM99.2374 20.5938C99.2374 22.9277 100.81 24.5684 102.968 24.5781C105.155 24.5684 106.718 22.9277 106.737 20.5938C106.718 18.2891 105.155 16.6582 102.968 16.6484C100.81 16.6582 99.2374 18.2891 99.2374 20.5938ZM100.605 20.5938C100.605 19.0703 101.591 17.957 102.968 17.9375C104.355 17.957 105.37 19.0703 105.37 20.5938C105.37 22.1367 104.355 23.2402 102.968 23.2305C101.591 23.2402 100.605 22.1367 100.605 20.5938ZM108.222 27.7227H109.667V19.8125H111.972V28.582H113.437V11.2188H111.972V18.543H109.667V11.6484H108.222V27.7227ZM130.774 25.0664H126.829V20.3398C128.264 19.5684 129.133 18.3379 129.133 16.7852C129.133 14.0996 126.497 12.332 122.786 12.3125C119.075 12.332 116.438 14.0996 116.438 16.7852C116.438 18.3672 117.337 19.6172 118.821 20.3887V25.0664H114.876V26.3555H130.774V25.0664ZM117.922 16.7852C117.913 14.8418 119.934 13.5625 122.786 13.582C125.608 13.5625 127.649 14.8418 127.649 16.7852C127.649 18.7285 125.608 20.0273 122.786 20.0273C119.934 20.0273 117.913 18.7285 117.922 16.7852ZM120.325 25.0664V20.9453C121.067 21.1406 121.897 21.2383 122.786 21.2383C123.694 21.2383 124.534 21.1309 125.286 20.9355V25.0664H120.325ZM133.912 12.8594H131.998L132.135 23.0156H133.776L133.912 12.8594ZM131.705 25.8477C131.686 26.541 132.272 27.1074 132.955 27.1172C133.649 27.1074 134.215 26.541 134.205 25.8477C134.215 25.1641 133.649 24.5977 132.955 24.5977C132.272 24.5977 131.686 25.1641 131.705 25.8477Z" fill="#212121"/>
<path d="M37.5714 18.4965V31.6354C37.5714 32.071 37.3983 32.4888 37.0902 32.7968C36.7822 33.1048 36.3643 33.2778 35.9286 33.2778H32.6429C32.2071 33.2778 31.7893 33.1048 31.4812 32.7968C31.1731 32.4888 31 32.071 31 31.6354V20.1389C31 19.7033 31.1731 19.2856 31.4812 18.9776C31.7893 18.6696 32.2071 18.4965 32.6429 18.4965H37.5714ZM37.5714 18.4965C39.3143 18.4965 40.9857 17.8044 42.2181 16.5724C43.4505 15.3404 44.1429 13.6694 44.1429 11.9271V10.2847C44.1429 9.41356 44.489 8.57808 45.1052 7.96207C45.7214 7.34607 46.5571 7 47.4286 7C48.3 7 49.1357 7.34607 49.7519 7.96207C50.3681 8.57808 50.7143 9.41356 50.7143 10.2847V18.4965H55.6429C56.5143 18.4965 57.35 18.8426 57.9662 19.4586C58.5824 20.0746 58.9286 20.9101 58.9286 21.7813L57.2857 29.9931C57.0494 31.0006 56.6013 31.8658 56.0086 32.4582C55.416 33.0506 54.7111 33.3383 54 33.2778H42.5C41.1929 33.2778 39.9393 32.7587 39.015 31.8347C38.0907 30.9107 37.5714 29.6575 37.5714 28.3507" stroke="#212121" stroke-width="1.64286" stroke-linecap="round" stroke-linejoin="round"/>
</svg>
