<svg width="97" height="28" viewBox="0 0 97 28" fill="none" xmlns="http://www.w3.org/2000/svg">
<rect x="0.5" y="0.5" width="96" height="27" rx="13.5" fill="white" stroke="#3C454C"/>
<path d="M40.0312 7.375H38.8125V21.2969H40.0312V7.375ZM29.3438 9.6875H34.5781V12.6094H29.375V17.9219H30.5312C32.9297 17.9219 35.0391 17.8203 37.5938 17.4219L37.4688 16.3906C34.9844 16.7891 32.9297 16.8984 30.625 16.8906V13.6094H35.8125V8.67188H29.3438V9.6875ZM54.4479 15.4844H41.7292V16.5156H44.9479V21.2656H46.1979V16.5156H49.9792V21.2656H51.1979V16.5156H54.4479V15.4844ZM43.3542 13.8438H52.8073V7.9375H51.5729V9.82812H44.5729V7.9375H43.3542V13.8438ZM44.5729 12.8438V10.8125H51.5729V12.8438H44.5729ZM63 9.95312V9.35938H66.125V8.35938H58.625V9.35938H61.7969V9.95312C61.7813 11.9453 60.3281 13.7344 58.25 14.4688L58.9063 15.4219C60.5391 14.8281 61.8125 13.6016 62.4063 12.0234C63 13.4609 64.211 14.5938 65.7969 15.1562L66.4219 14.2031C64.3672 13.4922 63.0078 11.8047 63 9.95312ZM60.0625 17.4844H67.9375V21.2656H69.1563V16.4844H60.0625V17.4844ZM67.9375 15.75H69.1563V12.0938H71.25V11.0469H69.1563V7.375H67.9375V15.75ZM76.2604 9.5625V8.17188H75.0417V9.60938C75.0261 11.7656 73.6042 13.6094 71.4636 14.3594L72.1354 15.3594C73.8151 14.7266 75.0808 13.4375 75.6745 11.7734C76.2761 13.2344 77.4792 14.3672 79.0104 14.9375L79.6979 13.9844C77.6589 13.2891 76.2448 11.5469 76.2604 9.5625ZM73.7292 18.6406C73.7214 20.2969 75.4948 21.2344 78.3854 21.2344C81.2683 21.2344 83.0417 20.2969 83.0417 18.6406C83.0417 16.9688 81.2683 16.0078 78.3854 16.0156C75.4948 16.0078 73.7214 16.9688 73.7292 18.6406ZM74.9479 18.6406C74.9401 17.6016 76.2526 16.9844 78.3854 16.9844C80.5104 16.9844 81.8229 17.6016 81.8229 18.6406C81.8229 19.6484 80.5104 20.2578 78.3854 20.25C76.2526 20.2578 74.9401 19.6484 74.9479 18.6406ZM78.6667 11.375H81.7604V15.6094H82.9948V7.375H81.7604V10.3594H78.6667V11.375Z" fill="#3C454C"/>
<path d="M12 17.6403V19.6667C12 19.8534 12.1466 20 12.3333 20H14.3597C14.4463 20 14.533 19.9667 14.593 19.9L21.872 12.6277L19.3723 10.128L12.1 17.4004C12.0333 17.467 12 17.547 12 17.6403ZM23.805 10.6946C24.065 10.4347 24.065 10.0147 23.805 9.75476L22.2452 8.19497C21.9853 7.93501 21.5653 7.93501 21.3054 8.19497L20.0855 9.4148L22.5852 11.9145L23.805 10.6946Z" fill="#3C454C"/>
</svg>
