<svg width="97" height="28" viewBox="0 0 97 28" fill="none" xmlns="http://www.w3.org/2000/svg">
<rect x="0.5" y="0.5" width="96" height="27" rx="13.5" fill="white" stroke="#3C454C"/>
<path d="M44.2812 18.5156H38.4844V15.8906H43V14.875H34.375V12.6094H42.6719V8.40625H33.125V9.42188H41.4688V11.6094H33.1562V15.8906H37.2812V18.5156H31.5625V19.5469H44.2812V18.5156ZM55.6979 8.85938H46.1198V9.875H54.4948V10.25C54.4948 11.9531 54.4948 14.0312 53.9323 16.875L55.1823 17C55.6979 13.9766 55.6979 12 55.6979 10.25V8.85938ZM44.7448 19.2188H57.401V18.2031H44.7448V19.2188ZM61.6458 8.45312C59.5833 8.46094 58.138 10.3438 58.1458 13.2969C58.138 16.2578 59.5833 18.1328 61.6458 18.125C63.6927 18.1328 65.1458 16.2578 65.1615 13.2969C65.1458 10.3438 63.6927 8.46094 61.6458 8.45312ZM59.3021 13.2969C59.3099 11.0391 60.2708 9.55469 61.6458 9.54688C63.0365 9.55469 63.974 11.0391 63.974 13.2969C63.974 15.5547 63.0365 17.0391 61.6458 17.0312C60.2708 17.0391 59.3099 15.5547 59.3021 13.2969ZM67.4583 21.2656H68.6771V13.9844H71.0052V12.9219H68.6771V7.375H67.4583V21.2656ZM83.8125 13.7188H71.1094V14.7812H76.8125V16.2969H78.0156V14.7812H83.8125V13.7188ZM72.0313 20.2656L72.4375 21.2031C74.6172 20.9609 76.5781 20.1094 77.4063 18.7969C78.2344 20.125 80.211 20.9609 82.4063 21.2031L82.7969 20.2656C80.2813 20.0078 78.0391 18.9062 78.0313 17.375V16.9219H76.7813V17.375C76.7813 18.8828 74.5156 20.0078 72.0313 20.2656ZM72.5156 10.1406C72.5156 11.7578 74.3906 12.6875 77.4375 12.6719C80.4844 12.6875 82.336 11.7578 82.3438 10.1406C82.336 8.50781 80.4844 7.60156 77.4375 7.60938C74.3906 7.60156 72.5156 8.50781 72.5156 10.1406ZM73.7813 10.1406C73.7735 9.14062 75.1641 8.53125 77.4375 8.54688C79.6875 8.53125 81.086 9.14062 81.0938 10.1406C81.086 11.125 79.6875 11.7266 77.4375 11.7188C75.1641 11.7266 73.7735 11.125 73.7813 10.1406Z" fill="#3C454C"/>
<path d="M23.25 10.1111L22.1925 11.2078L24.1275 13.2222H16.5V14.7778H24.1275L22.1925 16.7844L23.25 17.8889L27 14L23.25 10.1111ZM13.5 8.55556H19.5V7H13.5C12.675 7 12 7.7 12 8.55556V19.4444C12 20.3 12.675 21 13.5 21H19.5V19.4444H13.5V8.55556Z" fill="#3C454C"/>
</svg>
