<svg width="97" height="28" viewBox="0 0 97 28" fill="none" xmlns="http://www.w3.org/2000/svg">
<rect x="0.5" y="0.5" width="96" height="27" rx="13.5" fill="white" stroke="#3C454C"/>
<path d="M40.0312 7.375H38.8125V21.2969H40.0312V7.375ZM29.3438 9.6875H34.5781V12.6094H29.375V17.9219H30.5312C32.9297 17.9219 35.0391 17.8203 37.5938 17.4219L37.4688 16.3906C34.9844 16.7891 32.9297 16.8984 30.625 16.8906V13.6094H35.8125V8.67188H29.3438V9.6875ZM54.4479 15.4844H41.7292V16.5156H44.9479V21.2656H46.1979V16.5156H49.9792V21.2656H51.1979V16.5156H54.4479V15.4844ZM43.3542 13.8438H52.8073V7.9375H51.5729V9.82812H44.5729V7.9375H43.3542V13.8438ZM44.5729 12.8438V10.8125H51.5729V12.8438H44.5729ZM65.2656 8.67188V7.875H64V8.67188C64 10.6641 61.461 12.3203 58.9531 12.6719L59.4531 13.6719C61.6172 13.3125 63.75 12.1328 64.6406 10.4141C65.5313 12.1172 67.6719 13.3125 69.8281 13.6719L70.3281 12.6719C67.8203 12.3203 65.2735 10.6328 65.2656 8.67188ZM58.2969 16.2344H64V21.2656H65.2031V16.2344H70.9531V15.2031H58.2969V16.2344ZM82.9948 7.375H81.7604V11H78.9636V12.0156H81.7604V15.6562H82.9948V7.375ZM71.5417 14.5469L72.1823 15.5312C73.8386 14.8984 75.1276 13.6016 75.7214 11.9766C76.3229 13.4062 77.5339 14.5781 79.0886 15.1406L79.7292 14.1562C77.6979 13.4609 76.3073 11.7344 76.3073 9.92188V9.42188H79.4167V8.39062H71.9323V9.42188H75.0729V9.9375C75.0729 11.9219 73.6042 13.8047 71.5417 14.5469ZM73.7292 18.6719C73.7214 20.3125 75.4948 21.25 78.3854 21.2656C81.2683 21.25 83.0417 20.3125 83.0417 18.6719C83.0417 17.0391 81.2683 16.0859 78.3854 16.0938C75.4948 16.0859 73.7214 17.0391 73.7292 18.6719ZM74.9479 18.6719C74.9401 17.6562 76.2526 17.0469 78.3854 17.0469C80.5104 17.0469 81.8229 17.6562 81.8229 18.6719C81.8229 19.6797 80.5104 20.2891 78.3854 20.2812C76.2526 20.2891 74.9401 19.6797 74.9479 18.6719Z" fill="#3C454C"/>
<path d="M12 17.6403V19.6667C12 19.8534 12.1466 20 12.3333 20H14.3597C14.4463 20 14.533 19.9667 14.593 19.9L21.872 12.6277L19.3723 10.128L12.1 17.4004C12.0333 17.467 12 17.547 12 17.6403ZM23.805 10.6946C24.065 10.4347 24.065 10.0147 23.805 9.75476L22.2452 8.19497C21.9853 7.93501 21.5653 7.93501 21.3054 8.19497L20.0855 9.4148L22.5852 11.9145L23.805 10.6946Z" fill="#3C454C"/>
</svg>
