<svg width="97" height="28" viewBox="0 0 97 28" fill="none" xmlns="http://www.w3.org/2000/svg">
<rect x="0.5" y="0.5" width="96" height="27" rx="13.5" fill="white" stroke="#3C454C"/>
<path d="M40.0312 7.375H38.8125V21.2969H40.0312V7.375ZM29.3438 9.6875H34.5781V12.6094H29.375V17.9219H30.5312C32.9297 17.9219 35.0391 17.8203 37.5938 17.4219L37.4688 16.3906C34.9844 16.7891 32.9297 16.8984 30.625 16.8906V13.6094H35.8125V8.67188H29.3438V9.6875ZM54.4479 15.4844H41.7292V16.5156H44.9479V21.2656H46.1979V16.5156H49.9792V21.2656H51.1979V16.5156H54.4479V15.4844ZM43.3542 13.8438H52.8073V7.9375H51.5729V9.82812H44.5729V7.9375H43.3542V13.8438ZM44.5729 12.8438V10.8125H51.5729V12.8438H44.5729ZM62.9688 9.60938V8.09375H61.7656V9.53125C61.7578 11.6328 60.3672 13.4609 58.2656 14.2031L58.9063 15.1875C60.5547 14.5781 61.8047 13.3281 62.3906 11.7109C62.9922 13.1797 64.2188 14.3516 65.7969 14.9062L66.4375 13.9375C64.3985 13.2344 62.961 11.5 62.9688 9.60938ZM60.0625 17.4844H67.9375V21.2656H69.1563V16.4844H60.0625V17.4844ZM67.9375 15.7969H69.1563V12.1094H71.25V11.0625H69.1563V7.375H67.9375V15.7969ZM83.3542 7.375H82.1823V21.2656H83.3542V7.375ZM71.3073 17.5625L72.0886 18.4844C73.4792 17.6172 74.487 15.9844 74.987 14.0703C75.4714 15.8359 76.4401 17.3359 77.8073 18.1562L78.5573 17.25C76.6433 16.1406 75.5573 13.7422 75.5573 11.3438V10.0312H78.1042V9.01562H71.6979V10.0312H74.3698V11.3438C74.3776 13.8672 73.2448 16.4062 71.3073 17.5625ZM77.0417 13.3906H79.3854V20.5469H80.5417V7.71875H79.3854V12.3906H77.0417V13.3906Z" fill="#3C454C"/>
<path d="M14.7143 18.6667C14.7143 19.4 15.3571 20 16.1429 20H21.8571C22.6429 20 23.2857 19.4 23.2857 18.6667V12C23.2857 11.2667 22.6429 10.6667 21.8571 10.6667H16.1429C15.3571 10.6667 14.7143 11.2667 14.7143 12V18.6667ZM23.2857 8.66667H21.5L20.9929 8.19333C20.8643 8.07333 20.6786 8 20.4929 8H17.5071C17.3214 8 17.1357 8.07333 17.0071 8.19333L16.5 8.66667H14.7143C14.3214 8.66667 14 8.96667 14 9.33333C14 9.7 14.3214 10 14.7143 10H23.2857C23.6786 10 24 9.7 24 9.33333C24 8.96667 23.6786 8.66667 23.2857 8.66667Z" fill="#3C454C"/>
</svg>
