<svg width="61" height="61" viewBox="0 0 61 61" fill="none" xmlns="http://www.w3.org/2000/svg">
<rect width="61" height="61" rx="8" fill="#FC9400"/>
<path d="M30 8C24.4818 8 20 12.4818 20 18C20 23.5182 24.4818 28 30 28C35.5182 28 40 23.5182 40 18C40 12.4818 35.5182 8 30 8ZM33.2455 22.5455L30 21.1091L26.7545 22.5455L26.4182 22.2091L30 13.4545L33.5909 22.2091L33.2455 22.5455Z" fill="white"/>
<path d="M22.3281 35.2188H20.3281V42.375H22.3281V35.2188ZM10.625 41.0625L11.3281 42.6719C15.8281 41.7578 18.0078 39.6406 18.0156 35.7344H11.3906V37.3438H15.7969C15.5859 39.0469 14.1406 40.4219 10.625 41.0625ZM12.7812 44.4844H20.3125V45.3438H12.8125V49.2969H22.7188V47.75H14.8281V46.7812H22.3281V42.9375H12.7812V44.4844ZM35.0693 35.2188H33.0693V45.5781H35.0693V40.9531H36.9912V39.2969H35.0693V35.2188ZM23.8818 39.75C23.874 41.8359 25.6005 43.3594 27.788 43.3594C29.9677 43.3594 31.663 41.8359 31.663 39.75C31.663 37.6328 29.9677 36.1328 27.788 36.1406C25.6005 36.1328 23.874 37.6328 23.8818 39.75ZM25.8505 49.1875H35.5849V47.5938H27.8349V44.4844H25.8505V49.1875ZM25.8505 39.75C25.8349 38.5625 26.7021 37.8672 27.788 37.875C28.8818 37.8672 29.7177 38.5625 29.7255 39.75C29.7177 40.9062 28.8818 41.625 27.788 41.625C26.7021 41.625 25.8349 40.9062 25.8505 39.75ZM49.4198 35.2188H47.4979V40.7188H46.1698V35.4531H44.2948V48.75H46.1698V42.3281H47.4979V49.4375H49.4198V35.2188ZM37.7323 45.9688H38.7011C40.1698 45.9766 41.7948 45.875 43.7011 45.5469L43.4979 43.8281C42.1308 44.0938 40.8729 44.1953 39.7323 44.2266V36.7969H37.7323V45.9688Z" fill="white"/>
</svg>
