<svg width="52" height="53" viewBox="0 0 52 53" fill="none" xmlns="http://www.w3.org/2000/svg">
<path d="M26 0C11.648 0 0 11.872 0 26.5C0 41.128 11.648 53 26 53C40.352 53 52 41.128 52 26.5C52 11.872 40.352 0 26 0Z" fill="#FFEB00"/>
<path d="M25.9997 14C18.821 14 13 18.5941 13 24.2646C13 27.9069 15.411 31.1049 19.0316 32.9301L17.8067 37.5006C17.7598 37.6409 17.7987 37.7894 17.9005 37.8906C17.9705 37.9611 18.064 38 18.1655 38C18.2438 38 18.3216 37.9689 18.3919 37.9143L23.6588 34.3574C24.4238 34.4666 25.2042 34.5289 25.9997 34.5289C33.1785 34.5289 39 29.935 39 24.2646C39 18.5941 33.1785 14 25.9997 14Z" fill="#3C1E1E"/>
</svg>
