<svg width="52" height="53" viewBox="0 0 52 53" fill="none" xmlns="http://www.w3.org/2000/svg">
<path d="M26 0C11.648 0 0 11.872 0 26.5C0 41.128 11.648 53 26 53C40.352 53 52 41.128 52 26.5C52 11.872 40.352 0 26 0Z" fill="#03C75A"/>
<path d="M35.9615 36H27.8615L21.2915 20.91H21.1715C21.1715 20.91 21.1815 21.09 21.2015 21.45C21.2215 21.79 21.2515 22.24 21.2915 22.8C21.3315 23.36 21.3615 23.96 21.3815 24.6C21.4215 25.22 21.4415 25.8 21.4415 26.34V36H16.0415V14.58H24.1115L30.6515 29.46H30.7415C30.7415 29.46 30.7315 29.29 30.7115 28.95C30.6915 28.61 30.6615 28.17 30.6215 27.63C30.6015 27.09 30.5815 26.52 30.5615 25.92C30.5415 25.32 30.5315 24.77 30.5315 24.27V14.58H35.9615V36Z" fill="white"/>
</svg>
