<svg width="20" height="20" viewBox="0 0 20 20" fill="none" xmlns="http://www.w3.org/2000/svg">
<path d="M3.92976 8.65556C5.49298 11.8 8.01149 14.3667 11.0837 15.9778L13.4719 13.5333C13.765 13.2333 14.1992 13.1333 14.5792 13.2667C15.795 13.6778 17.1086 13.9 18.4547 13.9C19.0517 13.9 19.5402 14.4 19.5402 15.0111V18.8889C19.5402 19.5 19.0517 20 18.4547 20C8.26117 20 0 11.5444 0 1.11111C0 0.5 0.488506 0 1.08557 0H4.88506C5.48212 0 5.97063 0.5 5.97063 1.11111C5.97063 2.5 6.18774 3.83333 6.5894 5.07778C6.70881 5.46667 6.62197 5.9 6.31801 6.21111L3.92976 8.65556Z" fill="white"/>
</svg>
