<svg width="52" height="53" viewBox="0 0 52 53" fill="none" xmlns="http://www.w3.org/2000/svg">
<path d="M26 0C11.648 0 0 11.872 0 26.5C0 41.128 11.648 53 26 53C40.352 53 52 41.128 52 26.5C52 11.872 40.352 0 26 0Z" fill="#3B66C4"/>
<path d="M41 26.0376C41 17.7368 34.28 11 26 11C17.72 11 11 17.7368 11 26.0376C11 33.3158 16.16 39.3759 23 40.7744V30.5489H20V26.0376H23V22.2782C23 19.3759 25.355 17.015 28.25 17.015H32V21.5263H29C28.175 21.5263 27.5 22.203 27.5 23.0301V26.0376H32V30.5489H27.5V41C35.075 40.2481 41 33.8421 41 26.0376Z" fill="white"/>
</svg>
