<svg width="52" height="53" viewBox="0 0 52 53" fill="none" xmlns="http://www.w3.org/2000/svg">
<path d="M26 0C11.648 0 0 11.872 0 26.5C0 41.128 11.648 53 26 53C40.352 53 52 41.128 52 26.5C52 11.872 40.352 0 26 0Z" fill="#EEEEEE"/>
<path d="M26.2441 24.0996V28.8797H32.8342C32.5448 30.417 31.6764 31.7187 30.374 32.5939L34.3481 35.7021C36.6635 33.5478 37.9993 30.3834 37.9993 26.6244C37.9993 25.7492 37.9214 24.9076 37.7767 24.0997L26.2441 24.0996Z" fill="#4285F4"/>
<path d="M19.3814 28.6914L18.4851 29.383L15.3125 31.874C17.3274 35.9023 21.457 38.6851 26.2436 38.6851C29.5497 38.6851 32.3215 37.5854 34.3475 35.7004L30.3735 32.5922C29.2826 33.3327 27.8911 33.7816 26.2436 33.7816C23.0599 33.7816 20.355 31.616 19.3864 28.6985L19.3814 28.6914Z" fill="#34A853"/>
<path d="M15.3135 20.8105C14.4786 22.4712 14 24.3451 14 26.3424C14 28.3397 14.4786 30.2136 15.3135 31.8742C15.3135 31.8854 19.3878 28.6875 19.3878 28.6875C19.1429 27.9469 18.9981 27.1615 18.9981 26.3423C18.9981 25.523 19.1429 24.7376 19.3878 23.997L15.3135 20.8105Z" fill="#FBBC05"/>
<path d="M26.2439 18.9148C28.0473 18.9148 29.6502 19.5431 30.9304 20.755L34.4369 17.2204C32.3107 15.2232 29.5501 14 26.2439 14C21.4572 14 17.3274 16.7716 15.3125 20.8111L19.3867 23.9978C20.3551 21.0804 23.0602 18.9148 26.2439 18.9148Z" fill="#EA4335"/>
</svg>
