<svg width="318" height="57" viewBox="0 0 318 57" fill="none" xmlns="http://www.w3.org/2000/svg">
<g filter="url(#filter0_d_65_1091)">
<rect x="4" width="310" height="49" rx="10" fill="#3B66C4"/>
</g>
<path d="M38.1109 25.0301C38.1109 18.3895 32.7175 13 26.072 13C19.4266 13 14.0332 18.3895 14.0332 25.0301C14.0332 30.8526 18.1746 35.7008 23.6643 36.8195V28.6391H21.2565V25.0301H23.6643V22.0226C23.6643 19.7008 25.5544 17.812 27.8779 17.812H30.8876V21.4211H28.4798C27.8177 21.4211 27.2759 21.9624 27.2759 22.6241V25.0301H30.8876V28.6391H27.2759V37C33.3555 36.3985 38.1109 31.2737 38.1109 25.0301Z" fill="white"/>
<path d="M121.281 17.2188H119.359V31.4375H121.281V17.2188ZM108.687 26.5469L108.906 28.1875C110.687 28.1875 113.593 28.1328 115.843 27.6562L115.702 26.2188C115.343 26.2734 114.96 26.3125 114.562 26.3516V20.4375H115.468V18.8281H108.952V20.4375H109.874V26.5469H108.687ZM111.64 26.5156V20.4375H112.749V26.4766C112.374 26.4922 112.007 26.5078 111.64 26.5156ZM115.14 24.1719H116.515V30.7656H118.406V17.5H116.515V22.3906H115.14V24.1719ZM134.577 17.2188H132.562V31.4688H134.577V17.2188ZM123.093 23.2812C123.085 26.4062 124.671 28.3594 126.859 28.3594C128.999 28.3594 130.593 26.4062 130.593 23.2812C130.593 20.1797 128.999 18.2188 126.859 18.2188C124.671 18.2188 123.085 20.1797 123.093 23.2812ZM125.015 23.2812C125.007 21.1719 125.749 20.0156 126.859 20.0156C127.937 20.0156 128.663 21.1719 128.671 23.2812C128.663 25.3984 127.937 26.5547 126.859 26.5469C125.749 26.5547 125.007 25.3984 125.015 23.2812ZM143.984 19.0938V18.0625H141.859V19.0938C141.843 21.1562 139.992 23.3906 136.827 23.9531L137.687 25.6094C140.148 25.1094 141.992 23.7031 142.929 21.8984C143.851 23.7188 145.687 25.1172 148.171 25.6094L149.046 23.9531C145.827 23.4062 143.976 21.1797 143.984 19.0938ZM136.499 29.6875H149.515V28.0469H136.499V29.6875ZM163.296 24H150.327V25.5625H155.812V26.7969H151.765V28.3906H159.734V31.4375H161.718V26.7969H157.781V25.5625H163.296V24ZM151.984 23.0625H161.64V17.5625H159.656V18.8594H153.952V17.5625H151.984V23.0625ZM153.952 21.5V20.3281H159.656V21.5H153.952ZM180.859 28.2188H175.312V26.0781H179.687V24.4531H171.343V22.8594H179.359V18.1406H169.327V19.7344H177.39V21.2969H169.343V26.0781H173.327V28.2188H167.843V29.8594H180.859V28.2188ZM193.046 18.5312H183.015V20.125H191.062V20.2344C191.054 22.125 191.054 24.1562 190.515 26.8906L192.531 27.0625C193.038 24.1172 193.038 22.1875 193.046 20.2344V18.5312ZM181.671 29.5781H194.64V27.9375H181.671V29.5781ZM207.406 17.2344H205.406V27.4531H207.406V17.2344ZM195.718 21.7188C195.718 23.8359 197.421 25.3281 199.609 25.3281C201.788 25.3281 203.492 23.8359 203.499 21.7188C203.492 19.6328 201.788 18.1328 199.609 18.1406C197.421 18.1328 195.718 19.6328 195.718 21.7188ZM197.671 21.7188C197.656 20.5625 198.492 19.8672 199.609 19.875C200.687 19.8672 201.523 20.5625 201.531 21.7188C201.523 22.9062 200.687 23.5938 199.609 23.5938C198.492 23.5938 197.656 22.9062 197.671 21.7188ZM197.874 31.1875H207.781V29.5938H199.89V26.4219H197.874V31.1875Z" fill="white"/>
<defs>
<filter id="filter0_d_65_1091" x="0" y="0" width="318" height="57" filterUnits="userSpaceOnUse" color-interpolation-filters="sRGB">
<feFlood flood-opacity="0" result="BackgroundImageFix"/>
<feColorMatrix in="SourceAlpha" type="matrix" values="0 0 0 0 0 0 0 0 0 0 0 0 0 0 0 0 0 0 127 0" result="hardAlpha"/>
<feOffset dy="4"/>
<feGaussianBlur stdDeviation="2"/>
<feComposite in2="hardAlpha" operator="out"/>
<feColorMatrix type="matrix" values="0 0 0 0 0 0 0 0 0 0 0 0 0 0 0 0 0 0 0.25 0"/>
<feBlend mode="normal" in2="BackgroundImageFix" result="effect1_dropShadow_65_1091"/>
<feBlend mode="normal" in="SourceGraphic" in2="effect1_dropShadow_65_1091" result="shape"/>
</filter>
</defs>
</svg>
