<svg width="318" height="57" viewBox="0 0 318 57" fill="none" xmlns="http://www.w3.org/2000/svg">
<g filter="url(#filter0_d_321_912)">
<rect x="4" width="310" height="49" rx="10" fill="black"/>
</g>
<path d="M134.562 17.2344H132.577V26.6719H134.562V17.2344ZM122.843 24.4844L123.593 26.0781C127.96 24.7969 130.257 22.125 130.265 18.2812H123.64V19.875H128.132C127.82 21.9453 126.109 23.5781 122.843 24.4844ZM124.171 29.8281L124.952 31.4062C127.234 31.0469 128.874 30.0312 129.726 28.6406C130.562 30.0312 132.21 31.0469 134.531 31.4062L135.296 29.8281C132.249 29.4062 130.765 27.8594 130.781 26.25V25.75H128.687V26.25C128.687 27.8594 127.179 29.4141 124.171 29.8281ZM148.484 17.2188H146.499V21.3906H144.656V23.0156H146.499V25.5469H148.484V17.2188ZM136.531 20.0156H144.906V18.4531H141.718V17.0938H139.749V18.4531H136.531V20.0156ZM137.312 22.9531C137.312 24.4609 138.742 25.4688 140.734 25.4688C142.726 25.4688 144.14 24.4609 144.14 22.9531C144.14 21.4609 142.734 20.4375 140.734 20.4375C138.742 20.4375 137.312 21.4609 137.312 22.9531ZM138.89 31.2812H148.484V26.0938H146.515V27.1719H140.89V26.0938H138.89V31.2812ZM139.187 22.9531C139.187 22.2891 139.804 21.8906 140.734 21.9062C141.64 21.8906 142.257 22.2891 142.265 22.9531C142.257 23.625 141.64 24.0312 140.734 24.0312C139.804 24.0312 139.187 23.625 139.187 22.9531ZM140.89 29.7188V28.7031H146.515V29.7188H140.89ZM167.031 28.2188H161.484V26.0781H165.859V24.4531H157.515V22.8594H165.531V18.1406H155.499V19.7344H163.562V21.2969H155.515V26.0781H159.499V28.2188H154.015V29.8594H167.031V28.2188ZM179.218 18.5312H169.187V20.125H177.234V20.2344C177.226 22.125 177.226 24.1562 176.687 26.8906L178.702 27.0625C179.21 24.1172 179.21 22.1875 179.218 20.2344V18.5312ZM167.843 29.5781H180.812V27.9375H167.843V29.5781ZM193.577 17.2344H191.577V27.4531H193.577V17.2344ZM181.89 21.7188C181.89 23.8359 183.593 25.3281 185.781 25.3281C187.96 25.3281 189.663 23.8359 189.671 21.7188C189.663 19.6328 187.96 18.1328 185.781 18.1406C183.593 18.1328 181.89 19.6328 181.89 21.7188ZM183.843 21.7188C183.827 20.5625 184.663 19.8672 185.781 19.875C186.859 19.8672 187.695 20.5625 187.702 21.7188C187.695 22.9062 186.859 23.5938 185.781 23.5938C184.663 23.5938 183.827 22.9062 183.843 21.7188ZM184.046 31.1875H193.952V29.5938H186.062V26.4219H184.046V31.1875Z" fill="white"/>
<path d="M28.5 11C21.0458 11 15 17.1974 15 24.8413C15 30.9568 18.8677 36.145 24.2329 37.9755C24.9067 38.1035 25.125 37.6745 25.125 37.31V34.7332C21.3697 35.5706 20.5879 33.0999 20.5879 33.0999C19.9736 31.5001 19.0883 31.0745 19.0883 31.0745C17.8631 30.2152 19.1816 30.2336 19.1816 30.2336C20.5373 30.3305 21.2505 31.6604 21.2505 31.6604C22.4543 33.7758 24.4084 33.1645 25.179 32.8104C25.2994 31.9165 25.6493 31.3052 26.0363 30.9603C23.0381 30.6085 19.8859 29.4216 19.8859 24.1192C19.8859 22.6071 20.4135 21.3729 21.2764 20.404C21.1369 20.0545 20.6745 18.6462 21.408 16.7407C21.408 16.7407 22.542 16.3693 25.1216 18.1594C26.1982 17.8526 27.3525 17.6992 28.5 17.6934C29.6475 17.6992 30.8029 17.8526 31.8817 18.1594C34.4591 16.3693 35.5909 16.7407 35.5909 16.7407C36.3255 18.6473 35.8631 20.0557 35.7236 20.404C36.5899 21.3729 37.113 22.6082 37.113 24.1192C37.113 29.4354 33.9551 30.6062 30.9491 30.9488C31.4329 31.3778 31.875 32.2198 31.875 33.5117V37.31C31.875 37.6779 32.091 38.1105 32.7761 37.9744C38.1367 36.1415 42 30.9545 42 24.8413C42 17.1974 35.9554 11 28.5 11Z" fill="white"/>
<defs>
<filter id="filter0_d_321_912" x="0" y="0" width="318" height="57" filterUnits="userSpaceOnUse" color-interpolation-filters="sRGB">
<feFlood flood-opacity="0" result="BackgroundImageFix"/>
<feColorMatrix in="SourceAlpha" type="matrix" values="0 0 0 0 0 0 0 0 0 0 0 0 0 0 0 0 0 0 127 0" result="hardAlpha"/>
<feOffset dy="4"/>
<feGaussianBlur stdDeviation="2"/>
<feComposite in2="hardAlpha" operator="out"/>
<feColorMatrix type="matrix" values="0 0 0 0 0 0 0 0 0 0 0 0 0 0 0 0 0 0 0.25 0"/>
<feBlend mode="normal" in2="BackgroundImageFix" result="effect1_dropShadow_321_912"/>
<feBlend mode="normal" in="SourceGraphic" in2="effect1_dropShadow_321_912" result="shape"/>
</filter>
</defs>
</svg>
