<svg width="318" height="57" viewBox="0 0 318 57" fill="none" xmlns="http://www.w3.org/2000/svg">
<g filter="url(#filter0_d_65_1092)">
<rect x="4" width="310" height="49" rx="10" fill="#EEEEEE"/>
</g>
<path d="M26.2441 22.0996V26.8797H32.8342C32.5448 28.417 31.6764 29.7187 30.374 30.5939L34.3481 33.7021C36.6635 31.5478 37.9993 28.3834 37.9993 24.6244C37.9993 23.7492 37.9214 22.9076 37.7767 22.0997L26.2441 22.0996Z" fill="#4285F4"/>
<path d="M19.3814 26.6914L18.4851 27.383L15.3125 29.874C17.3274 33.9023 21.457 36.6851 26.2436 36.6851C29.5497 36.6851 32.3215 35.5854 34.3475 33.7004L30.3735 30.5922C29.2826 31.3327 27.8911 31.7816 26.2436 31.7816C23.0599 31.7816 20.355 29.616 19.3864 26.6985L19.3814 26.6914Z" fill="#34A853"/>
<path d="M15.3135 18.8105C14.4786 20.4712 14 22.3451 14 24.3424C14 26.3397 14.4786 28.2136 15.3135 29.8742C15.3135 29.8854 19.3878 26.6875 19.3878 26.6875C19.1429 25.9469 18.9981 25.1615 18.9981 24.3423C18.9981 23.523 19.1429 22.7376 19.3878 21.997L15.3135 18.8105Z" fill="#FBBC05"/>
<path d="M26.2439 16.9148C28.0473 16.9148 29.6502 17.5431 30.9304 18.755L34.4369 15.2204C32.3107 13.2232 29.5501 12 26.2439 12C21.4572 12 17.3274 14.7716 15.3125 18.8111L19.3867 21.9978C20.3551 19.0804 23.0602 16.9148 26.2439 16.9148Z" fill="#EA4335"/>
<path d="M133.961 18.0469H123.992V19.6406H131.977C131.969 20.8672 131.938 22.2656 131.57 24.0938H122.508V25.7031H127.93V31.4531H129.93V25.7031H135.477V24.0938H133.594C133.953 22.1016 133.953 20.6562 133.961 19.3281V18.0469ZM147.805 17.7969H137.93V19.375H145.812C145.797 20.1641 145.75 21.0938 145.523 22.25H136.336V23.8125H149.352V22.25H147.531C147.812 20.8203 147.812 19.6797 147.805 18.7656V17.7969ZM137.805 26.3594H145.773V27.2969H137.82V31.3281H148.133V29.7969H139.805V28.7969H147.742V24.8125H137.805V26.3594ZM166.867 28.2188H161.32V26.0781H165.695V24.4531H157.352V22.8594H165.367V18.1406H155.336V19.7344H163.398V21.2969H155.352V26.0781H159.336V28.2188H153.852V29.8594H166.867V28.2188ZM179.055 18.5312H169.023V20.125H177.07V20.2344C177.062 22.125 177.062 24.1562 176.523 26.8906L178.539 27.0625C179.047 24.1172 179.047 22.1875 179.055 20.2344V18.5312ZM167.68 29.5781H180.648V27.9375H167.68V29.5781ZM193.414 17.2344H191.414V27.4531H193.414V17.2344ZM181.727 21.7188C181.727 23.8359 183.43 25.3281 185.617 25.3281C187.797 25.3281 189.5 23.8359 189.508 21.7188C189.5 19.6328 187.797 18.1328 185.617 18.1406C183.43 18.1328 181.727 19.6328 181.727 21.7188ZM183.68 21.7188C183.664 20.5625 184.5 19.8672 185.617 19.875C186.695 19.8672 187.531 20.5625 187.539 21.7188C187.531 22.9062 186.695 23.5938 185.617 23.5938C184.5 23.5938 183.664 22.9062 183.68 21.7188ZM183.883 31.1875H193.789V29.5938H185.898V26.4219H183.883V31.1875Z" fill="#3C454C"/>
<defs>
<filter id="filter0_d_65_1092" x="0" y="0" width="318" height="57" filterUnits="userSpaceOnUse" color-interpolation-filters="sRGB">
<feFlood flood-opacity="0" result="BackgroundImageFix"/>
<feColorMatrix in="SourceAlpha" type="matrix" values="0 0 0 0 0 0 0 0 0 0 0 0 0 0 0 0 0 0 127 0" result="hardAlpha"/>
<feOffset dy="4"/>
<feGaussianBlur stdDeviation="2"/>
<feComposite in2="hardAlpha" operator="out"/>
<feColorMatrix type="matrix" values="0 0 0 0 0 0 0 0 0 0 0 0 0 0 0 0 0 0 0.25 0"/>
<feBlend mode="normal" in2="BackgroundImageFix" result="effect1_dropShadow_65_1092"/>
<feBlend mode="normal" in="SourceGraphic" in2="effect1_dropShadow_65_1092" result="shape"/>
</filter>
</defs>
</svg>
