<svg width="318" height="57" viewBox="0 0 318 57" fill="none" xmlns="http://www.w3.org/2000/svg">
<g filter="url(#filter0_d_65_1094)">
<rect x="4" width="310" height="49" rx="10" fill="#FFEB00"/>
</g>
<path d="M26.0718 14C19.4238 14 14.0332 18.2113 14.0332 23.4092C14.0332 26.748 16.2659 29.6795 19.6189 31.3526L18.4845 35.5422C18.4411 35.6708 18.4771 35.807 18.5714 35.8997C18.6362 35.9644 18.7228 36 18.8168 36C18.8893 36 18.9613 35.9714 19.0264 35.9214L23.904 32.661C24.6124 32.761 25.335 32.8181 26.0718 32.8181C32.7198 32.8181 38.1109 28.6071 38.1109 23.4092C38.1109 18.2113 32.7198 14 26.0718 14Z" fill="#3C1E1E"/>
<path d="M123.156 18.5781H116.563V20.1719H121.164C121.117 20.8438 121.016 21.4844 120.867 22.0859L115.813 22.3906L116.063 24.0938L120.266 23.7031C119.461 25.2812 118.047 26.6016 115.672 27.7812L116.766 29.2812C122.078 26.6172 123.141 22.9688 123.156 18.5781ZM124.953 31.4062H126.953V24.3125H128.969V22.6719H126.953V17.2188H124.953V31.4062ZM136.985 18.5781H130.391V20.1719H134.992C134.945 20.8438 134.844 21.4844 134.695 22.0859L129.641 22.3906L129.891 24.0938L134.094 23.7031C133.289 25.2812 131.875 26.6016 129.5 27.7812L130.594 29.2812C135.906 26.6172 136.969 22.9688 136.985 18.5781ZM138.781 31.4062H140.781V24.3125H142.797V22.6719H140.781V17.2188H138.781V31.4062ZM149.875 17.9531C146.82 17.9531 144.531 19.5 144.531 21.8438C144.531 23.9844 146.336 25.4219 148.875 25.7109V28.1406H143.391V29.7812H156.406V28.1406H150.86V25.7109C153.414 25.4297 155.227 23.9922 155.235 21.8438C155.227 19.5 152.93 17.9531 149.875 17.9531ZM146.5 21.8438C146.5 20.4219 147.883 19.5391 149.875 19.5469C151.875 19.5391 153.258 20.4219 153.266 21.8438C153.258 23.3438 151.875 24.1797 149.875 24.1875C147.883 24.1797 146.5 23.3438 146.5 21.8438ZM173.922 28.2188H168.375V26.0781H172.75V24.4531H164.406V22.8594H172.422V18.1406H162.391V19.7344H170.453V21.2969H162.406V26.0781H166.391V28.2188H160.906V29.8594H173.922V28.2188ZM186.11 18.5312H176.078V20.125H184.125V20.2344C184.117 22.125 184.117 24.1562 183.578 26.8906L185.594 27.0625C186.102 24.1172 186.102 22.1875 186.11 20.2344V18.5312ZM174.735 29.5781H187.703V27.9375H174.735V29.5781ZM200.469 17.2344H198.469V27.4531H200.469V17.2344ZM188.781 21.7188C188.781 23.8359 190.485 25.3281 192.672 25.3281C194.852 25.3281 196.555 23.8359 196.563 21.7188C196.555 19.6328 194.852 18.1328 192.672 18.1406C190.485 18.1328 188.781 19.6328 188.781 21.7188ZM190.735 21.7188C190.719 20.5625 191.555 19.8672 192.672 19.875C193.75 19.8672 194.586 20.5625 194.594 21.7188C194.586 22.9062 193.75 23.5938 192.672 23.5938C191.555 23.5938 190.719 22.9062 190.735 21.7188ZM190.938 31.1875H200.844V29.5938H192.953V26.4219H190.938V31.1875Z" fill="#3C454C"/>
<defs>
<filter id="filter0_d_65_1094" x="0" y="0" width="318" height="57" filterUnits="userSpaceOnUse" color-interpolation-filters="sRGB">
<feFlood flood-opacity="0" result="BackgroundImageFix"/>
<feColorMatrix in="SourceAlpha" type="matrix" values="0 0 0 0 0 0 0 0 0 0 0 0 0 0 0 0 0 0 127 0" result="hardAlpha"/>
<feOffset dy="4"/>
<feGaussianBlur stdDeviation="2"/>
<feComposite in2="hardAlpha" operator="out"/>
<feColorMatrix type="matrix" values="0 0 0 0 0 0 0 0 0 0 0 0 0 0 0 0 0 0 0.25 0"/>
<feBlend mode="normal" in2="BackgroundImageFix" result="effect1_dropShadow_65_1094"/>
<feBlend mode="normal" in="SourceGraphic" in2="effect1_dropShadow_65_1094" result="shape"/>
</filter>
</defs>
</svg>
