<svg width="318" height="57" viewBox="0 0 318 57" fill="none" xmlns="http://www.w3.org/2000/svg">
<g filter="url(#filter0_d_65_1093)">
<rect x="4" width="310" height="49" rx="10" fill="#03C75A"/>
</g>
<path d="M33.9615 36H25.8615L19.2915 20.91H19.1715C19.1715 20.91 19.1815 21.09 19.2015 21.45C19.2215 21.79 19.2515 22.24 19.2915 22.8C19.3315 23.36 19.3615 23.96 19.3815 24.6C19.4215 25.22 19.4415 25.8 19.4415 26.34V36H14.0415V14.58H22.1115L28.6515 29.46H28.7415C28.7415 29.46 28.7315 29.29 28.7115 28.95C28.6915 28.61 28.6615 28.17 28.6215 27.63C28.6015 27.09 28.5815 26.52 28.5615 25.92C28.5415 25.32 28.5315 24.77 28.5315 24.27V14.58H33.9615V36Z" fill="white"/>
<path d="M118.141 18.5781H116.141V28.0312H117.141C118.969 28.0391 120.5 27.9766 122.25 27.5938L121.984 25.9219C120.648 26.2031 119.445 26.2969 118.141 26.3203V18.5781ZM120.141 23.3281H122.984V30.8125H124.875V17.4844H122.984V21.7188H120.141V23.3281ZM126.047 31.4375H127.922V17.2188H126.047V31.4375ZM141.328 17.2188H139.312V31.4688H141.328V17.2188ZM129.844 23.2812C129.836 26.4062 131.422 28.3594 133.609 28.3594C135.75 28.3594 137.344 26.4062 137.344 23.2812C137.344 20.1797 135.75 18.2188 133.609 18.2188C131.422 18.2188 129.836 20.1797 129.844 23.2812ZM131.766 23.2812C131.758 21.1719 132.5 20.0156 133.609 20.0156C134.688 20.0156 135.414 21.1719 135.422 23.2812C135.414 25.3984 134.688 26.5547 133.609 26.5469C132.5 26.5547 131.758 25.3984 131.766 23.2812ZM155.25 17.2188H153.281V22.2344H150.641V18.3125H148.688V21.7656H145.766V18.3125H143.781V28.0938H150.641V23.8438H153.281V31.4688H155.25V17.2188ZM145.766 26.5V23.3281H148.688V26.5H145.766ZM173.781 28.2188H168.234V26.0781H172.609V24.4531H164.266V22.8594H172.281V18.1406H162.25V19.7344H170.312V21.2969H162.266V26.0781H166.25V28.2188H160.766V29.8594H173.781V28.2188ZM185.969 18.5312H175.938V20.125H183.984V20.2344C183.977 22.125 183.977 24.1562 183.438 26.8906L185.453 27.0625C185.961 24.1172 185.961 22.1875 185.969 20.2344V18.5312ZM174.594 29.5781H187.562V27.9375H174.594V29.5781ZM200.328 17.2344H198.328V27.4531H200.328V17.2344ZM188.641 21.7188C188.641 23.8359 190.344 25.3281 192.531 25.3281C194.711 25.3281 196.414 23.8359 196.422 21.7188C196.414 19.6328 194.711 18.1328 192.531 18.1406C190.344 18.1328 188.641 19.6328 188.641 21.7188ZM190.594 21.7188C190.578 20.5625 191.414 19.8672 192.531 19.875C193.609 19.8672 194.445 20.5625 194.453 21.7188C194.445 22.9062 193.609 23.5938 192.531 23.5938C191.414 23.5938 190.578 22.9062 190.594 21.7188ZM190.797 31.1875H200.703V29.5938H192.812V26.4219H190.797V31.1875Z" fill="#3C454C"/>
<defs>
<filter id="filter0_d_65_1093" x="0" y="0" width="318" height="57" filterUnits="userSpaceOnUse" color-interpolation-filters="sRGB">
<feFlood flood-opacity="0" result="BackgroundImageFix"/>
<feColorMatrix in="SourceAlpha" type="matrix" values="0 0 0 0 0 0 0 0 0 0 0 0 0 0 0 0 0 0 127 0" result="hardAlpha"/>
<feOffset dy="4"/>
<feGaussianBlur stdDeviation="2"/>
<feComposite in2="hardAlpha" operator="out"/>
<feColorMatrix type="matrix" values="0 0 0 0 0 0 0 0 0 0 0 0 0 0 0 0 0 0 0.25 0"/>
<feBlend mode="normal" in2="BackgroundImageFix" result="effect1_dropShadow_65_1093"/>
<feBlend mode="normal" in="SourceGraphic" in2="effect1_dropShadow_65_1093" result="shape"/>
</filter>
</defs>
</svg>
